<svg width="34" height="42" viewBox="0 0 34 42" fill="none" xmlns="http://www.w3.org/2000/svg">
<path d="M26.5 16.1064C27 21.5 21.7495 31 17.5 31C13.2505 31 7 21.0417 7 16.1064C7 11.1711 10.7533 11 16 11C21.2467 11 26.5 11.1711 26.5 16.1064Z" fill="#E03636"/>
<rect x="16" y="8" width="2" height="6" fill="#297A15"/>
<rect x="13" y="12" width="2" height="8" transform="rotate(-90 13 12)" fill="#297A15"/>
<line x1="16" y1="7.5" x2="18" y2="7.5" stroke="black"/>
<line x1="12.5" y1="12" x2="12.5" y2="10" stroke="black"/>
<line x1="15" y1="12.5" x2="13" y2="12.5" stroke="black"/>
<line x1="15.5" y1="14" x2="15.5" y2="12" stroke="black"/>
<line x1="18.5" y1="14" x2="18.5" y2="12" stroke="black"/>
<line x1="16" y1="14.5" x2="18" y2="14.5" stroke="black"/>
<line x1="9" y1="11.5" x2="12" y2="11.5" stroke="black"/>
<line x1="22" y1="11.5" x2="25" y2="11.5" stroke="black"/>
<line x1="8" y1="12.5" x2="10" y2="12.5" stroke="black"/>
<line x1="7.5" y1="13" x2="7.5" y2="19" stroke="black"/>
<line x1="7.5" y1="19" x2="7.5" y2="20" stroke="black"/>
<line x1="7.5" y1="20" x2="7.5" y2="21" stroke="black"/>
<line x1="9.5" y1="22" x2="9.5" y2="24" stroke="black"/>
<line x1="9.5" y1="22" x2="9.5" y2="25" stroke="black"/>
<path d="M24.5 22.5V26" stroke="black"/>
<line x1="10.5" y1="24" x2="10.5" y2="26" stroke="black"/>
<line x1="23.5" y1="25" x2="23.5" y2="27" stroke="black"/>
<line x1="10.3536" y1="25.6464" x2="11.3536" y2="26.6464" stroke="black"/>
<line x1="11.3536" y1="26.6464" x2="12.3536" y2="27.6464" stroke="black"/>
<line x1="12.3536" y1="27.6464" x2="13.3536" y2="28.6464" stroke="black"/>
<line x1="19.6464" y1="30.6464" x2="20.6464" y2="29.6464" stroke="black"/>
<line x1="20.6464" y1="29.6464" x2="21.6464" y2="28.6464" stroke="black"/>
<line x1="21.6464" y1="28.6464" x2="22.6464" y2="27.6464" stroke="black"/>
<line x1="22.6464" y1="27.6464" x2="23.6464" y2="26.6464" stroke="black"/>
<line x1="13.3536" y1="28.6464" x2="14.3536" y2="29.6464" stroke="black"/>
<line x1="14.3536" y1="29.6464" x2="15.3536" y2="30.6464" stroke="black"/>
<path d="M15 30.75L20 30.75" stroke="black"/>
<line x1="8.5" y1="20" x2="8.5" y2="23" stroke="black"/>
<line x1="25.5" y1="20" x2="25.5" y2="23" stroke="black"/>
<line x1="26.5" y1="18" x2="26.5" y2="21" stroke="black"/>
<line x1="26.5" y1="15" x2="26.5" y2="18" stroke="black"/>
<line x1="26.5" y1="13" x2="26.5" y2="15" stroke="black"/>
<path d="M7 13H9" stroke="black"/>
<path d="M25 13H27" stroke="black"/>
<path d="M24 12H26" stroke="black"/>
<line x1="21" y1="12.5" x2="19" y2="12.5" stroke="black"/>
<line x1="15.5" y1="10" x2="15.5" y2="8" stroke="black"/>
<line x1="18.5" y1="10" x2="18.5" y2="8" stroke="black"/>
<line x1="19" y1="9.5" x2="21" y2="9.5" stroke="black"/>
<line x1="21.5" y1="10" x2="21.5" y2="12" stroke="black"/>
<line x1="15" y1="9.5" x2="13" y2="9.5" stroke="black"/>
<rect x="9" y="15" width="1" height="1" fill="#D5C921"/>
<rect x="11" y="17" width="1" height="1" fill="#D5C921"/>
<rect x="13" y="19" width="1" height="1" fill="#D5C921"/>
<rect x="15" y="21" width="1" height="1" fill="#D5C921"/>
<rect x="17" y="23" width="1" height="1" fill="#D5C921"/>
<rect x="20" y="25" width="1" height="1" fill="#D5C921"/>
<rect x="22" y="23" width="1" height="1" fill="#D5C921"/>
<rect x="24" y="21" width="1" height="1" fill="#D5C921"/>
<rect x="25" y="18" width="1" height="1" fill="#D5C921"/>
<rect x="19" y="21" width="1" height="1" fill="#D5C921"/>
<rect x="21" y="19" width="1" height="1" fill="#D5C921"/>
<rect x="23" y="17" width="1" height="1" fill="#D5C921"/>
<rect x="25" y="15" width="1" height="1" fill="#D5C921"/>
<rect x="17" y="19" width="1" height="1" fill="#D5C921"/>
<rect x="19" y="17" width="1" height="1" fill="#D5C921"/>
<rect x="21" y="15" width="1" height="1" fill="#D5C921"/>
<rect x="17" y="28" width="1" height="1" fill="#D5C921"/>
<rect x="15" y="17" width="1" height="1" fill="#D5C921"/>
<rect x="21" y="13" width="1" height="1" fill="#D5C921"/>
<rect x="14" y="15" width="1" height="1" fill="#D5C921"/>
<rect x="12" y="13" width="1" height="1" fill="#D5C921"/>
<rect x="12" y="23" width="1" height="1" fill="#D5C921"/>
<rect x="10" y="21" width="1" height="1" fill="#D5C921"/>
<rect x="9" y="18" width="1" height="1" fill="#D5C921"/>
<rect x="14" y="25" width="1" height="1" fill="#D5C921"/>
<rect x="19" y="27" width="1" height="1" fill="#D5C921"/>
<rect x="15" y="27" width="1" height="1" fill="#D5C921"/>
</svg>
